# xmcd
#
# Track frame offsets:
#	150
#	15708
#	34223
#	46420
#	61283
#	73231
#	79054
#	94591
#	109264
#	123377
#	136475
#	151567
#	168977
#	187590
#
# Disc length: 2516 seconds
#
# Revision: 1
# Processed by: cddbd v1.5.2PL0 Copyright (c) Steve Scherf et al.
# Submitted via: audiograbber 1.83.01
#
DISCID=b009d20e
DTITLE=Steve Wariner - Guitar Laboratory
DYEAR=2011
DGENRE=Country
TTITLE0=Tele Kinesis
TTITLE1=A Groove
TTITLE2=Goody 2 Shoes
TTITLE3=Kentuckiana
TTITLE4=Sugarfoot Rag
TTITLE5=Crafty
TTITLE6=I Will Never Forget You
TTITLE7=Pals
TTITLE8=Waikiki
TTITLE9=Up The Red Hill
TTITLE10=Phillis And Ramona
TTITLE11=White Dove
TTITLE12=Sting Ray
TTITLE13=Steve Wariner
EXTD=
EXTT0=
EXTT1=
EXTT2=
EXTT3=
EXTT4=
EXTT5=
EXTT6=
EXTT7=
EXTT8=
EXTT9=
EXTT10=
EXTT11=
EXTT12=
EXTT13=
PLAYORDER=
